<?xml version="1.0" encoding="UTF-8"?><svg xmlns="http://www.w3.org/2000/svg" xmlns:xlink="http://www.w3.org/1999/xlink" width="150pt" zoomAndPan="magnify" viewBox="0 0 150 149.999998" height="149.999998pt" preserveAspectRatio="xMidYMid meet" version="1.2"><g xml:id="surface1" id="surface1"><path style=" stroke:none;fill-rule:nonzero;fill:rgb(95.689392%,67.059326%,72.938538%);fill-opacity:1;" d="M 48.347656 53.109375 C 48.847656 43.949219 49.34375 40.335938 48.773438 33.566406 C 48.144531 27.367188 47.070312 22.820312 45.558594 18.398438 C 44.042969 13.976562 31.351562 15.703125 32.867188 23.300781 C 34.382812 30.898438 35.410156 52.628906 34.800781 59.695312 C 41.441406 55.457031 48.347656 53.109375 48.347656 53.109375 Z M 48.347656 53.109375 "/><path style=" stroke:none;fill-rule:nonzero;fill:rgb(74.508667%,9.799194%,19.219971%);fill-opacity:1;" d="M 41.441406 55.457031 C 32.269531 60.066406 23.09375 69.277344 23.09375 83.097656 C 23.09375 120.71875 56.675781 129.394531 84.199219 138.605469 C 111.71875 147.820312 114.996094 145.402344 124.011719 138.378906 C 128.601562 129.164062 125.785156 79.492188 112.023438 61.066406 C 102.101562 47.777344 62.359375 44.953125 41.441406 55.457031 Z M 41.441406 55.457031 "/><path style=" stroke:none;fill-rule:nonzero;fill:rgb(62.748718%,1.568604%,11.759949%);fill-opacity:1;" d="M 41.441406 55.457031 C 32.269531 60.066406 23.09375 69.277344 23.09375 83.097656 C 23.09375 120.71875 65.25 141.589844 80.359375 145.183594 C 107.273438 151.582031 119.421875 147.589844 124.007812 138.378906 C 116.359375 143.171875 84.054688 135.734375 66.929688 120.410156 C 48.972656 104.335938 40.878906 76.3125 52.421875 62.039062 C 52.726562 57.578125 51.914062 55.203125 51.914062 51.632812 C 48.113281 52.613281 44.566406 53.886719 41.441406 55.457031 Z M 41.441406 55.457031 "/><path style=" stroke:none;fill-rule:nonzero;fill:rgb(91.758728%,34.899902%,43.139648%);fill-opacity:1;" d="M 52.425781 62.039062 C 46.363281 52.824219 43.179688 35.980469 55.203125 23.210938 C 66.570312 11.140625 88.527344 10.96875 99.050781 27.398438 C 107.996094 41.367188 101.070312 69.273438 101.070312 69.273438 C 101.070312 69.273438 80.46875 47.824219 74.273438 57.863281 C 68.089844 67.910156 53.378906 63.488281 52.425781 62.039062 Z M 52.425781 62.039062 "/><path style=" stroke:none;fill-rule:nonzero;fill:rgb(95.689392%,67.059326%,72.938538%);fill-opacity:1;" d="M 100.09375 73.425781 C 105.050781 66.398438 105.050781 55.472656 105.050781 55.472656 C 105.050781 55.472656 106.4375 49.0625 120.921875 53.15625 C 122.339844 53.558594 126.664062 46.785156 123.957031 45.757812 C 114.109375 42.015625 107.101562 44.425781 107.101562 44.425781 C 107.101562 44.425781 111.941406 40.828125 118.988281 39.976562 C 121.785156 39.636719 119.515625 34.078125 116.738281 34.132812 C 113.734375 34.191406 111.003906 34.925781 107.765625 36.347656 C 106.25 37.007812 104.675781 35.875 104.113281 35.3125 C 95.585938 26.804688 86 28.039062 80.152344 30.648438 C 73.910156 33.433594 71.316406 41.320312 75.15625 46.660156 C 78.992188 52.003906 75.210938 56.042969 72.824219 60.3125 C 68.964844 67.210938 93.542969 82.710938 100.09375 73.425781 Z M 100.09375 73.425781 "/><path style=" stroke:none;fill-rule:nonzero;fill:rgb(91.758728%,34.899902%,43.139648%);fill-opacity:1;" d="M 62.785156 26.449219 C 59.59375 19.09375 55.96875 15.796875 51.230469 11.230469 C 46.496094 6.664062 54.453125 0.964844 59.566406 5.90625 C 64.675781 10.851562 69.410156 20.171875 70.171875 22.457031 C 70.929688 24.738281 64.691406 30.832031 62.785156 26.449219 Z M 62.785156 26.449219 "/><path style=" stroke:none;fill-rule:nonzero;fill:rgb(91.758728%,34.899902%,43.139648%);fill-opacity:1;" d="M 66.933594 15.917969 C 71.796875 13.363281 73.390625 6.292969 73.769531 4.007812 C 74.148438 1.726562 81.152344 1.535156 80.394531 6.480469 C 79.636719 11.425781 80.449219 14.746094 80.449219 14.746094 C 80.449219 14.746094 84.183594 8.359375 87.96875 5.125 C 91.753906 1.890625 96.101562 7.03125 94.015625 10.042969 C 91.929688 13.054688 91.53125 18.570312 92.515625 20.523438 C 93.496094 22.472656 82.898438 24.921875 76.152344 23.59375 C 69.417969 22.265625 66.933594 15.917969 66.933594 15.917969 Z M 66.933594 15.917969 "/><path style=" stroke:none;fill-rule:nonzero;fill:rgb(95.689392%,67.059326%,72.938538%);fill-opacity:1;" d="M 51.917969 44.074219 L 51.785156 44.070312 C 50.601562 43.996094 49.707031 42.976562 49.777344 41.785156 C 50.507812 29.933594 58.339844 20.445312 69.726562 17.617188 C 84.230469 14.03125 93.117188 22.546875 93.484375 22.914062 C 94.328125 23.742188 94.347656 25.105469 93.519531 25.957031 C 92.699219 26.800781 91.339844 26.824219 90.496094 25.996094 C 90.191406 25.703125 82.871094 18.800781 70.753906 21.800781 C 61.078125 24.203125 54.679688 31.960938 54.058594 42.054688 C 53.984375 43.195312 53.042969 44.074219 51.917969 44.074219 Z M 62.742188 17.667969 C 62 17.667969 61.28125 17.28125 60.882812 16.589844 C 60.855469 16.542969 58.097656 11.808594 54.121094 9.246094 C 53.128906 8.605469 52.835938 7.273438 53.476562 6.273438 C 54.113281 5.269531 55.4375 4.976562 56.4375 5.625 C 61.304688 8.761719 64.46875 14.210938 64.59375 14.441406 C 65.1875 15.46875 64.835938 16.785156 63.8125 17.378906 C 63.476562 17.570312 63.109375 17.667969 62.742188 17.667969 Z M 75.082031 14.609375 C 74.863281 14.609375 74.644531 14.578125 74.425781 14.503906 C 73.296875 14.144531 72.679688 12.933594 73.035156 11.800781 C 73.039062 11.777344 73.78125 9.410156 74.226562 5.285156 C 74.355469 4.097656 75.433594 3.242188 76.589844 3.375 C 77.769531 3.503906 78.621094 4.5625 78.492188 5.75 C 77.992188 10.355469 77.152344 13.011719 77.117188 13.117188 C 76.828125 14.03125 75.988281 14.609375 75.082031 14.609375 Z M 85.558594 15.371094 C 85.167969 15.371094 84.773438 15.261719 84.417969 15.039062 C 83.417969 14.40625 83.113281 13.078125 83.746094 12.074219 C 83.839844 11.925781 86.070312 8.398438 89.777344 5.695312 C 90.734375 5.003906 92.078125 5.214844 92.773438 6.175781 C 93.46875 7.136719 93.257812 8.484375 92.300781 9.179688 C 89.28125 11.378906 87.390625 14.339844 87.378906 14.371094 C 86.964844 15.015625 86.269531 15.371094 85.558594 15.371094 Z M 85.558594 15.371094 "/><path style=" stroke:none;fill-rule:nonzero;fill:rgb(96.859741%,85.488892%,88.62915%);fill-opacity:1;" d="M 100.757812 59.496094 C 100.636719 59.496094 100.511719 59.488281 100.390625 59.46875 C 99.226562 59.265625 98.441406 58.152344 98.640625 56.980469 L 98.835938 55.847656 C 100.359375 47.109375 101.675781 39.558594 90.191406 34.605469 C 89.101562 34.136719 88.597656 32.871094 89.066406 31.777344 C 89.53125 30.683594 90.796875 30.175781 91.878906 30.648438 C 106.480469 36.941406 104.582031 47.835938 103.054688 56.589844 L 102.863281 57.707031 C 102.691406 58.757812 101.78125 59.496094 100.757812 59.496094 Z M 108.039062 40.882812 C 107.433594 40.882812 106.859375 40.539062 106.585938 39.957031 C 106.203125 39.144531 106.546875 38.183594 107.355469 37.804688 C 107.5625 37.707031 112.574219 35.347656 116.320312 35.246094 C 117.214844 35.371094 117.945312 35.933594 117.972656 36.820312 C 117.992188 37.710938 117.292969 38.453125 116.40625 38.476562 C 113.339844 38.558594 108.777344 40.707031 108.730469 40.726562 C 108.503906 40.828125 108.265625 40.882812 108.039062 40.882812 Z M 120.648438 50.234375 C 120.417969 50.234375 120.183594 50.199219 119.957031 50.117188 C 115 48.414062 109.90625 49.640625 109.859375 49.65625 C 108.695312 49.941406 107.546875 49.234375 107.269531 48.082031 C 106.984375 46.929688 107.679688 45.765625 108.824219 45.476562 C 109.082031 45.414062 115.160156 43.921875 121.34375 46.042969 C 122.46875 46.425781 123.0625 47.648438 122.679688 48.777344 C 122.371094 49.667969 121.539062 50.234375 120.648438 50.234375 Z M 44.125 52.027344 C 42.941406 52.027344 41.980469 51.0625 41.980469 49.875 C 41.980469 49.691406 41.941406 31.148438 38.847656 21.597656 C 38.476562 20.464844 39.09375 19.25 40.21875 18.886719 C 41.339844 18.515625 42.550781 19.136719 42.921875 20.269531 C 46.226562 30.472656 46.265625 49.085938 46.265625 49.878906 C 46.269531 51.0625 45.308594 52.027344 44.125 52.027344 Z M 44.125 52.027344 "/><path style=" stroke:none;fill-rule:nonzero;fill:rgb(84.709167%,28.239441%,39.219666%);fill-opacity:1;" d="M 31.042969 107.648438 C 30.054688 107.648438 29.164062 106.957031 28.949219 105.949219 C 28.851562 105.492188 26.5625 94.660156 29.734375 87.59375 C 32.566406 81.265625 36.753906 78.835938 40.441406 76.695312 C 44.832031 74.144531 48.007812 72.308594 48.636719 64.398438 C 48.730469 63.214844 49.765625 62.347656 50.949219 62.425781 C 52.128906 62.519531 53.007812 63.558594 52.914062 64.746094 C 52.101562 74.90625 47.265625 77.714844 42.589844 80.429688 C 39.15625 82.425781 35.914062 84.300781 33.648438 89.363281 C 31.0625 95.132812 33.125 104.9375 33.148438 105.039062 C 33.394531 106.203125 32.664062 107.347656 31.503906 107.597656 C 31.339844 107.628906 31.191406 107.648438 31.042969 107.648438 Z M 84.273438 121.65625 C 83.527344 121.65625 82.800781 121.265625 82.402344 120.566406 C 81.816406 119.539062 82.175781 118.222656 83.203125 117.628906 C 83.289062 117.582031 91.257812 112.960938 93.84375 107.191406 C 96.535156 101.1875 95.265625 98.546875 93.347656 94.546875 C 91.574219 90.863281 89.371094 86.265625 90.019531 78.179688 C 90.109375 76.996094 91.175781 76.117188 92.328125 76.207031 C 93.503906 76.304688 94.382812 77.339844 94.289062 78.53125 C 93.742188 85.453125 95.503906 89.125 97.210938 92.683594 C 99.296875 97.03125 101.269531 101.128906 97.761719 108.960938 C 94.59375 116.023438 85.703125 121.164062 85.332031 121.378906 C 84.992188 121.566406 84.628906 121.65625 84.273438 121.65625 Z M 84.273438 121.65625 "/><path style=" stroke:none;fill-rule:nonzero;fill:rgb(84.709167%,28.239441%,39.219666%);fill-opacity:1;" d="M 79.503906 101.832031 C 78.890625 101.832031 78.28125 101.566406 77.855469 101.058594 C 76.183594 99.046875 75.816406 95.707031 76.953125 92.929688 C 78.007812 90.355469 80.109375 88.738281 82.734375 88.488281 C 86.328125 88.144531 89.449219 84.761719 89.585938 82.738281 C 89.667969 81.550781 90.699219 80.628906 91.867188 80.730469 C 93.046875 80.8125 93.941406 81.839844 93.867188 83.023438 C 93.570312 87.53125 88.355469 92.269531 83.140625 92.777344 C 82.113281 92.875 81.367188 93.476562 80.917969 94.566406 C 80.332031 95.996094 80.582031 97.617188 81.148438 98.296875 C 81.910156 99.210938 81.785156 100.566406 80.878906 101.328125 C 80.476562 101.667969 79.992188 101.832031 79.503906 101.832031 Z M 112.527344 119.492188 C 112.367188 119.492188 112.203125 119.472656 112.046875 119.433594 C 110.886719 119.167969 110.167969 118.007812 110.4375 116.851562 C 110.601562 116.152344 110.257812 114.683594 109.3125 113.335938 C 108.496094 112.167969 107.433594 111.402344 106.488281 111.289062 C 101.378906 110.683594 95.679688 101.625 94.78125 97.324219 C 94.535156 96.15625 95.277344 95.015625 96.433594 94.769531 C 97.605469 94.535156 98.734375 95.265625 98.976562 96.429688 C 99.777344 100.21875 104.714844 106.746094 106.992188 107.007812 C 109.199219 107.273438 111.269531 108.636719 112.820312 110.859375 C 114.398438 113.109375 115.085938 115.777344 114.617188 117.820312 C 114.382812 118.820312 113.5 119.492188 112.527344 119.492188 Z M 99.875 140.8125 C 99.347656 140.8125 98.816406 140.617188 98.398438 140.222656 C 97.542969 139.40625 97.503906 138.042969 98.3125 137.175781 C 101.230469 134.078125 99.472656 129.398438 96.601562 126.355469 C 93.957031 123.554688 89.222656 116.03125 91.464844 110.683594 C 91.925781 109.589844 93.183594 109.085938 94.273438 109.535156 C 95.363281 109.996094 95.878906 111.257812 95.417969 112.355469 C 94.269531 115.089844 97.195312 120.71875 99.714844 123.390625 C 104.867188 128.847656 105.574219 135.726562 101.429688 140.132812 C 101.011719 140.582031 100.445312 140.8125 99.875 140.8125 Z M 55.488281 104.199219 C 55.246094 104.199219 55 104.15625 54.761719 104.074219 C 53.648438 103.671875 53.066406 102.4375 53.472656 101.320312 C 54.539062 98.347656 52.734375 96.183594 46.332031 92.753906 C 42.730469 90.828125 40.460938 87.527344 40.089844 83.710938 C 39.773438 80.410156 40.964844 77.222656 43.199219 75.394531 C 44.125 74.640625 45.46875 74.785156 46.214844 75.703125 C 46.960938 76.625 46.824219 77.984375 45.90625 78.734375 C 44.785156 79.644531 44.183594 81.4375 44.363281 83.292969 C 44.496094 84.679688 45.191406 87.257812 48.351562 88.945312 C 52.488281 91.167969 60.191406 95.292969 57.507812 102.769531 C 57.1875 103.652344 56.363281 104.199219 55.488281 104.199219 Z M 50.984375 123.796875 C 50.808594 123.796875 50.636719 123.777344 50.460938 123.734375 C 45.640625 122.523438 42.671875 117.082031 43.972656 111.859375 C 44.6875 108.992188 39.480469 103.246094 37.300781 102.601562 C 31.367188 100.871094 28.246094 94.566406 29.152344 89.996094 C 29.386719 88.828125 30.492188 88.066406 31.675781 88.304688 C 32.839844 88.535156 33.589844 89.667969 33.355469 90.835938 C 32.953125 92.859375 34.371094 97.257812 38.503906 98.464844 C 42.457031 99.625 49.550781 107.199219 48.132812 112.902344 C 47.328125 116.117188 49.269531 118.992188 51.507812 119.550781 C 52.65625 119.839844 53.355469 121.011719 53.0625 122.160156 C 52.820312 123.148438 51.945312 123.796875 50.984375 123.796875 Z M 56.300781 78.839844 C 53.917969 78.839844 51.515625 77.585938 49.722656 75.363281 C 47.714844 72.871094 47.015625 69.851562 47.898438 67.476562 C 48.316406 66.359375 49.554688 65.796875 50.660156 66.214844 C 51.773438 66.632812 52.335938 67.875 51.917969 68.988281 C 51.582031 69.882812 52.0625 71.421875 53.054688 72.65625 C 53.886719 73.683594 55.253906 74.710938 56.664062 74.507812 C 57.871094 74.355469 58.929688 75.140625 59.105469 76.316406 C 59.28125 77.492188 58.476562 78.589844 57.304688 78.765625 C 56.96875 78.816406 56.636719 78.839844 56.300781 78.839844 Z M 56.300781 78.839844 "/><path style=" stroke:none;fill-rule:nonzero;fill:rgb(84.709167%,28.239441%,39.219666%);fill-opacity:1;" d="M 48.851562 93.359375 C 48.03125 93.359375 47.199219 93.1875 46.378906 92.773438 C 45.316406 92.238281 44.890625 90.949219 45.417969 89.882812 C 45.949219 88.824219 47.230469 88.386719 48.292969 88.917969 C 49.238281 89.410156 51 88.4375 52.707031 87.503906 C 55.210938 86.136719 58.054688 84.574219 61.03125 85.84375 C 62.121094 86.304688 62.636719 87.566406 62.175781 88.660156 C 61.71875 89.761719 60.460938 90.273438 59.367188 89.816406 C 58.296875 89.355469 56.496094 90.339844 54.75 91.292969 C 53.011719 92.238281 50.960938 93.359375 48.851562 93.359375 Z M 112.527344 135.644531 C 112.015625 135.644531 111.5 135.460938 111.089844 135.085938 C 110.210938 134.289062 110.136719 132.933594 110.933594 132.046875 C 111.203125 131.742188 111.34375 130.839844 111.042969 129.773438 C 110.691406 128.523438 109.722656 127.007812 108.050781 126.503906 C 106.597656 126.0625 105.121094 126.449219 103.554688 126.847656 C 101.617188 127.347656 99.425781 127.921875 97.203125 126.800781 C 96.144531 126.269531 95.714844 124.972656 96.242188 123.910156 C 96.773438 122.847656 98.050781 122.40625 99.121094 122.945312 C 99.863281 123.3125 100.878906 123.089844 102.484375 122.675781 C 104.355469 122.195312 106.6875 121.585938 109.285156 122.382812 C 112.117188 123.234375 114.320312 125.558594 115.171875 128.609375 C 115.855469 131.066406 115.460938 133.429688 114.117188 134.933594 C 113.691406 135.40625 113.109375 135.644531 112.527344 135.644531 Z M 117.457031 81.804688 C 116.617188 81.804688 115.816406 81.304688 115.476562 80.46875 C 114.03125 76.949219 112.015625 74.625 110.222656 74.402344 C 108.765625 74.246094 107.550781 75.511719 106.746094 76.613281 C 103.515625 81.039062 95.570312 81.082031 91.816406 80.480469 C 90.648438 80.296875 89.847656 79.195312 90.03125 78.019531 C 90.214844 76.84375 91.328125 76.03125 92.484375 76.226562 C 96.453125 76.855469 101.722656 76.207031 103.289062 74.0625 C 105.972656 70.390625 108.78125 69.894531 110.742188 70.128906 C 114.171875 70.546875 117.34375 73.714844 119.433594 78.828125 C 119.886719 79.925781 119.363281 81.1875 118.273438 81.636719 C 118.007812 81.757812 117.726562 81.804688 117.457031 81.804688 Z M 117.457031 81.804688 "/></g></svg>