<?xml version="1.0" encoding="UTF-8"?>
<svg xmlns="http://www.w3.org/2000/svg" xmlns:xlink="http://www.w3.org/1999/xlink" width="375pt" height="374.999991pt" viewBox="0 0 375 374.999991" version="1.2">
<defs>
<clipPath id="clip1">
  <path d="M 12 12 L 367 12 L 367 367.097656 L 12 367.097656 Z M 12 12 "/>
</clipPath>
</defs>
<g id="surface1">
<rect x="0" y="0" width="375" height="374.999991" style="fill:rgb(100%,100%,100%);fill-opacity:1;stroke:none;"/>
<rect x="0" y="0" width="375" height="374.999991" style="fill:rgb(100%,100%,100%);fill-opacity:1;stroke:none;"/>
<rect x="0" y="0" width="375" height="374.999991" style="fill:rgb(100%,100%,100%);fill-opacity:1;stroke:none;"/>
<path style=" stroke:none;fill-rule:nonzero;fill:rgb(100%,91.758728%,65.489197%);fill-opacity:1;" d="M 360.703125 309.246094 C 360.746094 309.757812 360.8125 310.203125 360.8125 310.71875 C 360.8125 316.898438 356.417969 322.207031 350.304688 323.300781 L 297.988281 332.828125 L 297.988281 58.675781 C 297.988281 55.53125 295.421875 52.964844 292.277344 52.964844 L 149.488281 52.964844 L 149.488281 41.542969 L 314.320312 18.808594 C 314.832031 18.761719 315.410156 18.695312 315.925781 18.695312 C 321.972656 18.695312 327.058594 23.203125 327.75 29.269531 L 360.703125 309.246094 "/>
<path style=" stroke:none;fill-rule:nonzero;fill:rgb(94.119263%,81.568909%,70.588684%);fill-opacity:1;" d="M 292.277344 52.964844 L 75.238281 52.964844 C 72.09375 52.964844 69.527344 55.53125 69.527344 58.675781 L 69.527344 355.671875 C 69.527344 358.820312 72.09375 361.382812 75.238281 361.382812 L 292.277344 361.382812 C 295.421875 361.382812 297.988281 358.820312 297.988281 355.671875 L 297.988281 58.675781 C 297.988281 55.53125 295.421875 52.964844 292.277344 52.964844 "/>
<path style=" stroke:none;fill-rule:nonzero;fill:rgb(100%,50.979614%,43.139648%);fill-opacity:1;" d="M 275.140625 304.269531 L 275.140625 338.539062 L 206.605469 338.539062 L 206.605469 304.269531 L 275.140625 304.269531 "/>
<path style=" stroke:none;fill-rule:nonzero;fill:rgb(66.668701%,69.799805%,74.119568%);fill-opacity:1;" d="M 69.527344 344.25 L 59.464844 354.3125 C 54.960938 358.820312 48.800781 361.382812 42.332031 361.382812 C 35.660156 361.382812 29.613281 358.640625 25.195312 354.3125 C 20.867188 349.894531 18.125 343.847656 18.125 337.179688 C 18.125 330.707031 20.691406 324.550781 25.195312 320.042969 L 35.257812 309.980469 L 69.527344 344.25 "/>
<path style=" stroke:none;fill-rule:nonzero;fill:rgb(66.668701%,69.799805%,74.119568%);fill-opacity:1;" d="M 145.207031 254.292969 L 138.066406 275.710938 L 103.796875 241.445312 L 125.214844 234.304688 L 145.207031 254.292969 "/>
<path style=" stroke:none;fill-rule:nonzero;fill:rgb(66.668701%,69.799805%,74.119568%);fill-opacity:1;" d="M 155.199219 224.308594 L 145.207031 254.292969 L 125.214844 234.304688 Z M 155.199219 224.308594 "/>
<path style=" stroke:none;fill-rule:nonzero;fill:rgb(98.81897%,84.309387%,43.919373%);fill-opacity:1;" d="M 138.066406 275.710938 L 69.527344 344.25 L 35.257812 309.980469 L 103.796875 241.445312 L 138.066406 275.710938 "/>
<path style=" stroke:none;fill-rule:nonzero;fill:rgb(90.19928%,91.369629%,92.939758%);fill-opacity:1;" d="M 275.140625 75.8125 L 275.140625 178.617188 L 258.007812 178.617188 L 254.28125 156.285156 C 253.03125 148.699219 248.636719 141.894531 242.1875 137.609375 C 237.613281 134.578125 232.195312 132.925781 226.707031 132.925781 L 223.738281 132.925781 C 233.21875 132.925781 240.871094 125.273438 240.871094 115.792969 C 240.871094 106.308594 233.21875 98.65625 223.738281 98.65625 C 214.257812 98.65625 206.605469 106.308594 206.605469 115.792969 C 206.605469 125.273438 214.257812 132.925781 223.738281 132.925781 L 220.769531 132.925781 C 215.28125 132.925781 209.859375 134.578125 205.289062 137.609375 C 198.839844 141.894531 194.445312 148.699219 193.195312 156.285156 L 189.46875 178.617188 L 172.335938 178.617188 L 172.335938 75.8125 L 275.140625 75.8125 "/>
<path style=" stroke:none;fill-rule:nonzero;fill:rgb(36.079407%,83.918762%,70.199585%);fill-opacity:1;" d="M 254.28125 156.285156 L 258.007812 178.617188 L 189.46875 178.617188 L 193.195312 156.285156 C 194.445312 148.699219 198.839844 141.894531 205.289062 137.609375 C 209.859375 134.578125 215.28125 132.925781 220.769531 132.925781 L 226.707031 132.925781 C 232.195312 132.925781 237.613281 134.578125 242.1875 137.609375 C 248.636719 141.894531 253.03125 148.699219 254.28125 156.285156 "/>
<path style=" stroke:none;fill-rule:nonzero;fill:rgb(94.119263%,81.568909%,70.588684%);fill-opacity:1;" d="M 223.738281 98.65625 C 233.21875 98.65625 240.871094 106.308594 240.871094 115.792969 C 240.871094 125.273438 233.21875 132.925781 223.738281 132.925781 C 214.257812 132.925781 206.605469 125.273438 206.605469 115.792969 C 206.605469 106.308594 214.257812 98.65625 223.738281 98.65625 "/>
<path style=" stroke:none;fill-rule:nonzero;fill:rgb(0%,0%,0%);fill-opacity:1;" d="M 178.046875 81.523438 L 269.429688 81.523438 L 269.429688 172.90625 L 262.847656 172.90625 L 259.925781 155.371094 C 258.410156 146.222656 253.097656 138.011719 245.378906 132.882812 C 243.996094 131.964844 242.566406 131.164062 241.09375 130.449219 C 244.488281 126.476562 246.582031 121.390625 246.582031 115.792969 C 246.582031 103.1875 236.34375 92.945312 223.738281 92.945312 C 211.132812 92.945312 200.890625 103.1875 200.890625 115.792969 C 200.890625 121.390625 202.988281 126.476562 206.378906 130.449219 C 204.90625 131.164062 203.480469 131.964844 202.097656 132.882812 C 194.378906 138.011719 189.066406 146.222656 187.550781 155.371094 L 184.628906 172.90625 L 178.046875 172.90625 Z M 208.433594 142.386719 C 212.113281 139.929688 216.375 138.636719 220.792969 138.636719 L 226.683594 138.636719 C 231.101562 138.636719 235.363281 139.929688 239.042969 142.386719 C 244.152344 145.777344 247.632812 151.199219 248.660156 157.242188 L 251.269531 172.90625 L 196.207031 172.90625 L 198.816406 157.242188 C 199.84375 151.199219 203.324219 145.777344 208.433594 142.386719 Z M 223.738281 127.214844 C 217.445312 127.214844 212.316406 122.082031 212.316406 115.792969 C 212.316406 109.5 217.445312 104.367188 223.738281 104.367188 C 230.03125 104.367188 235.160156 109.5 235.160156 115.792969 C 235.160156 122.082031 230.03125 127.214844 223.738281 127.214844 Z M 280.851562 184.328125 L 280.851562 70.097656 L 166.625 70.097656 L 166.625 184.328125 L 280.851562 184.328125 "/>
<path style=" stroke:none;fill-rule:nonzero;fill:rgb(0%,0%,0%);fill-opacity:1;" d="M 155.199219 104.367188 L 86.664062 104.367188 L 86.664062 115.792969 L 155.199219 115.792969 L 155.199219 104.367188 "/>
<path style=" stroke:none;fill-rule:nonzero;fill:rgb(0%,0%,0%);fill-opacity:1;" d="M 155.199219 127.214844 L 86.664062 127.214844 L 86.664062 138.636719 L 155.199219 138.636719 L 155.199219 127.214844 "/>
<path style=" stroke:none;fill-rule:nonzero;fill:rgb(0%,0%,0%);fill-opacity:1;" d="M 155.199219 150.058594 L 86.664062 150.058594 L 86.664062 161.484375 L 155.199219 161.484375 L 155.199219 150.058594 "/>
<path style=" stroke:none;fill-rule:nonzero;fill:rgb(0%,0%,0%);fill-opacity:1;" d="M 155.199219 172.90625 L 86.664062 172.90625 L 86.664062 184.328125 L 155.199219 184.328125 L 155.199219 172.90625 "/>
<path style=" stroke:none;fill-rule:nonzero;fill:rgb(0%,0%,0%);fill-opacity:1;" d="M 86.664062 207.175781 L 280.851562 207.175781 L 280.851562 195.75 L 86.664062 195.75 L 86.664062 207.175781 "/>
<path style=" stroke:none;fill-rule:nonzero;fill:rgb(0%,0%,0%);fill-opacity:1;" d="M 212.316406 309.980469 L 269.429688 309.980469 L 269.429688 332.828125 L 212.316406 332.828125 Z M 200.890625 344.25 L 280.851562 344.25 L 280.851562 298.558594 L 200.890625 298.558594 L 200.890625 344.25 "/>
<path style=" stroke:none;fill-rule:nonzero;fill:rgb(0%,0%,0%);fill-opacity:1;" d="M 143.777344 344.25 L 189.46875 344.25 L 189.46875 332.828125 L 143.777344 332.828125 L 143.777344 344.25 "/>
<path style=" stroke:none;fill-rule:nonzero;fill:rgb(0%,0%,0%);fill-opacity:1;" d="M 143.777344 321.40625 L 189.46875 321.40625 L 189.46875 309.980469 L 143.777344 309.980469 L 143.777344 321.40625 "/>
<g clip-path="url(#clip1)" clip-rule="nonzero">
<path style=" stroke:none;fill-rule:nonzero;fill:rgb(0%,0%,0%);fill-opacity:1;" d="M 349.277344 317.699219 L 303.699219 325.976562 L 303.699219 58.675781 C 303.699219 52.382812 298.566406 47.253906 292.277344 47.253906 L 155.199219 47.253906 L 155.199219 46.515625 L 315.097656 24.472656 C 318.535156 24.027344 321.679688 26.480469 322.058594 29.917969 L 355.058594 309.9375 C 355.078125 310.203125 355.101562 310.472656 355.101562 310.738281 C 355.101562 314.152344 352.671875 317.074219 349.277344 317.699219 Z M 292.277344 355.671875 L 75.238281 355.671875 L 75.238281 346.613281 L 143.0625 278.792969 L 159.304688 230.019531 L 280.851562 230.019531 L 280.851562 218.597656 L 154.285156 218.597656 L 100.71875 236.445312 L 75.238281 261.925781 L 75.238281 58.675781 L 98.085938 58.675781 L 98.085938 75.8125 C 98.085938 85.269531 105.761719 92.945312 115.21875 92.945312 C 124.679688 92.945312 132.355469 85.269531 132.355469 75.8125 L 132.355469 58.675781 L 143.777344 58.675781 L 143.777344 81.523438 L 155.199219 81.523438 L 155.199219 58.675781 L 292.277344 58.675781 Z M 42.355469 355.671875 C 32.136719 355.671875 23.835938 347.375 23.835938 337.15625 C 23.835938 332.203125 25.753906 327.5625 29.257812 324.058594 L 35.257812 318.058594 L 61.453125 344.25 L 55.449219 350.25 C 51.949219 353.753906 47.308594 355.671875 42.355469 355.671875 Z M 103.796875 249.519531 L 129.988281 275.710938 L 69.527344 336.175781 L 43.335938 309.980469 Z M 123.675781 240.839844 L 138.667969 255.832031 L 135.566406 265.136719 L 114.371094 243.941406 Z M 142.707031 243.71875 L 135.789062 236.804688 L 146.164062 233.34375 Z M 109.507812 58.675781 L 120.929688 58.675781 L 120.929688 75.8125 C 120.929688 78.957031 118.367188 81.523438 115.21875 81.523438 C 112.074219 81.523438 109.507812 78.957031 109.507812 75.8125 Z M 109.507812 35.832031 C 109.507812 29.539062 114.640625 24.40625 120.929688 24.40625 L 132.355469 24.40625 C 138.644531 24.40625 143.777344 29.539062 143.777344 35.832031 L 143.777344 47.253906 L 132.355469 47.253906 L 132.355469 35.832031 L 120.929688 35.832031 L 120.929688 47.253906 L 109.507812 47.253906 Z M 366.390625 308.574219 L 333.417969 28.601562 C 332.324219 18.898438 323.21875 11.78125 313.539062 13.140625 L 155.109375 35.003906 C 154.664062 22.800781 144.667969 12.984375 132.355469 12.984375 L 120.929688 12.984375 C 108.324219 12.984375 98.085938 23.226562 98.085938 35.832031 L 98.085938 47.253906 L 75.238281 47.253906 C 68.949219 47.253906 63.816406 52.382812 63.816406 58.675781 L 63.816406 273.347656 L 21.179688 315.984375 C 15.535156 321.648438 12.414062 329.167969 12.414062 337.15625 C 12.414062 353.664062 25.84375 367.097656 42.355469 367.097656 C 50.363281 367.097656 57.882812 363.972656 63.527344 358.328125 L 64.039062 357.816406 C 65.042969 363.101562 69.683594 367.097656 75.238281 367.097656 L 292.277344 367.097656 C 298.566406 367.097656 303.699219 361.964844 303.699219 355.671875 L 303.699219 337.601562 L 351.332031 328.945312 C 360.144531 327.339844 366.523438 319.6875 366.523438 310.738281 C 366.523438 310.003906 366.480469 309.265625 366.390625 308.574219 "/>
</g>
</g>
</svg>
