<?xml version="1.0" encoding="UTF-8"?><svg xmlns="http://www.w3.org/2000/svg" xmlns:xlink="http://www.w3.org/1999/xlink" width="150pt" zoomAndPan="magnify" viewBox="0 0 150 149.999998" height="149.999998pt" preserveAspectRatio="xMidYMid meet" version="1.2"><defs><clipPath xml:id="clip1" id="clip1"><path d="M 38 7 L 111 7 L 111 147.5625 L 38 147.5625 Z M 38 7 "/></clipPath><clipPath xml:id="clip2" id="clip2"><path d="M 97 17 L 114.570312 17 L 114.570312 35 L 97 35 Z M 97 17 "/></clipPath><clipPath xml:id="clip3" id="clip3"><path d="M 96 15 L 114.570312 15 L 114.570312 36 L 96 36 Z M 96 15 "/></clipPath><clipPath xml:id="clip4" id="clip4"><path d="M 35.070312 17 L 54 17 L 54 35 L 35.070312 35 Z M 35.070312 17 "/></clipPath><clipPath xml:id="clip5" id="clip5"><path d="M 35.070312 15 L 54 15 L 54 36 L 35.070312 36 Z M 35.070312 15 "/></clipPath></defs><g xml:id="surface1" id="surface1"><path style=" stroke:none;fill-rule:nonzero;fill:rgb(6.669617%,6.669617%,6.669617%);fill-opacity:1;" d="M 110.703125 52.085938 C 110.691406 51.625 110.636719 51.167969 110.582031 50.710938 L 110.5 50.035156 L 110.410156 49.441406 C 109.945312 46.257812 109.429688 43.082031 108.894531 39.90625 C 108.34375 36.730469 107.777344 33.554688 107.144531 30.386719 C 106.515625 27.214844 105.851562 24.046875 105.0625 20.890625 C 104.722656 24.128906 104.507812 27.359375 104.328125 30.585938 C 104.144531 33.8125 104.027344 37.039062 103.929688 40.257812 C 103.847656 43.480469 103.785156 46.699219 103.765625 49.914062 L 103.757812 50.519531 L 103.734375 51.042969 C 103.71875 51.390625 103.707031 51.730469 103.671875 52.074219 C 103.621094 52.757812 103.527344 53.433594 103.40625 54.101562 C 103.164062 55.4375 102.773438 56.730469 102.296875 57.972656 C 101.816406 59.214844 101.210938 60.398438 100.496094 61.503906 C 99.785156 62.609375 98.988281 63.652344 98.089844 64.59375 C 96.289062 66.464844 94.179688 68.003906 91.859375 69.042969 C 89.546875 70.078125 87.066406 70.671875 84.546875 70.761719 L 83.601562 70.769531 L 82.429688 70.761719 L 80.105469 70.738281 L 75.265625 8.859375 L 70.421875 70.734375 L 68.097656 70.757812 L 66.925781 70.765625 L 65.980469 70.753906 C 63.464844 70.664062 60.984375 70.070312 58.671875 69.03125 C 56.355469 68 54.25 66.453125 52.449219 64.585938 C 51.550781 63.644531 50.75 62.605469 50.046875 61.496094 C 49.332031 60.394531 48.726562 59.210938 48.242188 57.96875 C 47.769531 56.726562 47.382812 55.433594 47.136719 54.101562 C 47.015625 53.433594 46.921875 52.757812 46.871094 52.074219 C 46.832031 51.730469 46.828125 51.390625 46.808594 51.042969 L 46.785156 50.519531 L 46.777344 49.914062 C 46.757812 48.308594 46.753906 46.699219 46.722656 45.089844 L 46.609375 40.257812 C 46.507812 37.039062 46.390625 33.816406 46.207031 30.585938 C 46.027344 27.359375 45.808594 24.128906 45.464844 20.890625 C 44.671875 24.046875 44.003906 27.214844 43.375 30.382812 C 42.738281 33.554688 42.171875 36.726562 41.621094 39.902344 L 40.835938 44.667969 C 40.574219 46.257812 40.347656 47.847656 40.101562 49.4375 L 40.011719 50.035156 L 39.929688 50.710938 C 39.875 51.167969 39.828125 51.625 39.8125 52.085938 C 39.753906 53.003906 39.75 53.933594 39.789062 54.859375 C 39.867188 56.714844 40.125 58.578125 40.609375 60.394531 C 42.453125 67.699219 47.578125 74.179688 54.394531 77.75 C 57.789062 79.554688 61.597656 80.613281 65.445312 80.867188 L 66.886719 80.921875 L 68.097656 80.933594 L 70.15625 80.953125 L 70.15625 144.429688 C 70.15625 145.398438 70.9375 146.183594 71.898438 146.183594 L 78.632812 146.183594 C 79.59375 146.183594 80.371094 145.398438 80.371094 144.429688 L 80.371094 80.949219 L 82.429688 80.929688 L 83.644531 80.917969 L 85.085938 80.859375 C 88.929688 80.605469 92.734375 79.550781 96.128906 77.738281 C 102.949219 74.175781 108.058594 67.6875 109.90625 60.390625 C 110.390625 58.578125 110.644531 56.710938 110.726562 54.859375 C 110.761719 53.929688 110.761719 53.003906 110.703125 52.085938 "/><g clip-rule="nonzero" clip-path="url(#clip1)"><path style=" stroke:none;fill-rule:nonzero;fill:rgb(0%,0%,0%);fill-opacity:1;" d="M 110.835938 52.078125 C 110.960938 54.066406 110.863281 56.074219 110.558594 58.042969 C 110.40625 59.03125 110.191406 60.007812 109.910156 60.964844 C 109.78125 61.449219 109.648438 61.929688 109.476562 62.398438 L 109.238281 63.105469 L 108.960938 63.800781 C 107.464844 67.5 105.1875 70.882812 102.304688 73.640625 C 100.863281 75.019531 99.269531 76.25 97.566406 77.285156 C 95.863281 78.324219 94.054688 79.203125 92.164062 79.855469 C 90.273438 80.515625 88.316406 80.96875 86.324219 81.210938 C 84.316406 81.460938 82.347656 81.4375 80.375 81.503906 L 80.917969 80.949219 L 81.457031 115.761719 C 81.515625 121.5625 81.605469 127.363281 81.636719 133.164062 L 81.699219 141.867188 L 81.710938 144.042969 L 81.714844 144.316406 L 81.710938 144.46875 L 81.703125 144.707031 C 81.671875 145.027344 81.59375 145.34375 81.472656 145.640625 C 81.21875 146.234375 80.792969 146.746094 80.246094 147.082031 C 79.972656 147.25 79.671875 147.378906 79.359375 147.453125 C 79.207031 147.492188 79.046875 147.515625 78.886719 147.53125 L 78.648438 147.542969 L 78.507812 147.542969 L 77.425781 147.546875 L 73.105469 147.5625 L 72.023438 147.566406 L 71.886719 147.566406 L 71.644531 147.554688 C 71.484375 147.539062 71.324219 147.519531 71.167969 147.476562 C 70.851562 147.40625 70.550781 147.277344 70.273438 147.109375 C 69.722656 146.773438 69.285156 146.261719 69.027344 145.660156 C 68.898438 145.359375 68.820312 145.039062 68.789062 144.71875 L 68.777344 144.476562 L 68.773438 144.320312 L 68.773438 144.046875 L 68.765625 141.871094 L 68.738281 133.167969 L 68.726562 115.765625 C 68.714844 104.160156 68.769531 92.558594 68.816406 80.953125 L 70.144531 82.304688 C 68.503906 82.277344 66.859375 82.289062 65.148438 82.179688 C 63.40625 82.050781 61.726562 81.757812 60.054688 81.328125 C 58.390625 80.894531 56.765625 80.3125 55.203125 79.589844 C 53.644531 78.855469 52.15625 77.992188 50.742188 77 C 47.917969 75.027344 45.484375 72.515625 43.53125 69.679688 C 41.566406 66.851562 40.164062 63.609375 39.363281 60.269531 C 38.957031 58.582031 38.730469 56.859375 38.652344 55.140625 C 38.617188 54.28125 38.613281 53.421875 38.652344 52.554688 L 38.667969 52.230469 L 38.691406 51.921875 L 38.753906 51.269531 C 38.789062 50.828125 38.835938 50.398438 38.890625 49.984375 L 39.683594 45.054688 L 40.527344 40.160156 C 41.136719 36.902344 41.785156 33.644531 42.417969 30.390625 C 43.089844 27.148438 43.8125 23.902344 44.65625 20.683594 L 44.660156 20.667969 C 44.777344 20.21875 45.234375 19.949219 45.679688 20.066406 C 46.027344 20.160156 46.265625 20.460938 46.300781 20.800781 C 46.558594 23.515625 46.730469 26.230469 46.863281 28.945312 C 47 31.65625 47.054688 34.371094 47.15625 37.085938 C 47.191406 38.441406 47.261719 39.796875 47.269531 41.152344 L 47.324219 45.21875 L 47.335938 49.289062 C 47.335938 49.972656 47.328125 50.632812 47.371094 51.292969 C 47.390625 51.625 47.398438 51.945312 47.429688 52.289062 C 47.453125 52.617188 47.492188 52.945312 47.535156 53.269531 C 47.714844 54.582031 48.023438 55.863281 48.460938 57.117188 C 48.882812 58.371094 49.441406 59.570312 50.113281 60.707031 C 50.792969 61.84375 51.5625 62.925781 52.441406 63.90625 C 53.320312 64.882812 54.308594 65.785156 55.359375 66.578125 C 57.464844 68.167969 59.914062 69.277344 62.480469 69.871094 C 63.765625 70.164062 65.078125 70.335938 66.394531 70.347656 C 67.726562 70.363281 69.074219 70.335938 70.417969 70.328125 L 70.023438 70.703125 L 71.195312 55.230469 L 72.292969 39.753906 L 74.367188 8.789062 C 74.402344 8.289062 74.828125 7.914062 75.324219 7.945312 C 75.773438 7.976562 76.121094 8.332031 76.160156 8.769531 L 76.160156 8.789062 L 77.539062 24.246094 C 78.003906 29.398438 78.417969 34.550781 78.859375 39.707031 L 80.09375 55.175781 L 81.253906 70.648438 L 80.117188 69.578125 L 84.125 69.632812 C 85.390625 69.636719 86.660156 69.488281 87.902344 69.222656 C 89.144531 68.953125 90.363281 68.550781 91.527344 68.035156 C 92.6875 67.519531 93.796875 66.871094 94.832031 66.121094 C 95.871094 65.375 96.855469 64.511719 97.730469 63.582031 C 98.597656 62.648438 99.378906 61.597656 100.066406 60.5 C 100.75 59.402344 101.320312 58.238281 101.761719 57.015625 C 102.214844 55.78125 102.558594 54.539062 102.761719 53.246094 C 102.816406 52.921875 102.859375 52.601562 102.894531 52.28125 C 102.929688 51.941406 102.949219 51.617188 102.976562 51.289062 C 103.035156 50.632812 103.039062 49.984375 103.0625 49.296875 L 103.191406 45.226562 L 103.324219 41.160156 C 103.355469 39.804688 103.464844 38.449219 103.53125 37.09375 L 103.761719 33.03125 C 103.839844 31.675781 103.902344 30.320312 104.011719 28.96875 C 104.203125 26.261719 104.4375 23.554688 104.753906 20.855469 L 104.753906 20.847656 C 104.777344 20.679688 104.929688 20.558594 105.097656 20.578125 C 105.230469 20.59375 105.332031 20.691406 105.363281 20.816406 C 105.964844 23.394531 106.519531 25.980469 107.023438 28.578125 C 107.28125 29.875 107.511719 31.179688 107.738281 32.480469 L 108.425781 36.390625 C 108.652344 37.691406 108.90625 38.988281 109.121094 40.292969 L 109.734375 44.210938 L 110.347656 48.132812 C 110.449219 48.785156 110.554688 49.4375 110.648438 50.09375 C 110.734375 50.75 110.777344 51.417969 110.835938 52.078125 Z M 110.570312 52.09375 C 110.507812 51.4375 110.460938 50.785156 110.371094 50.132812 C 110.28125 49.480469 110.167969 48.828125 110.066406 48.175781 L 108.800781 40.347656 C 108.578125 39.046875 108.324219 37.75 108.085938 36.453125 L 107.335938 32.558594 C 107.089844 31.261719 106.839844 29.964844 106.5625 28.675781 C 106.007812 26.09375 105.441406 23.515625 104.761719 20.964844 L 105.367188 20.921875 C 105.121094 23.613281 104.957031 26.3125 104.832031 29.015625 C 104.761719 30.371094 104.726562 31.722656 104.691406 33.074219 L 104.589844 37.132812 C 104.5625 38.488281 104.496094 39.835938 104.503906 41.191406 L 104.5 45.253906 L 104.488281 49.3125 C 104.484375 49.976562 104.5 50.6875 104.457031 51.382812 C 104.4375 51.726562 104.425781 52.085938 104.402344 52.417969 C 104.375 52.773438 104.335938 53.121094 104.289062 53.472656 C 104.113281 54.859375 103.777344 56.253906 103.328125 57.574219 C 102.890625 58.90625 102.304688 60.207031 101.59375 61.429688 C 100.878906 62.644531 100.074219 63.796875 99.132812 64.871094 C 98.1875 65.9375 97.15625 66.890625 96.03125 67.753906 C 94.902344 68.609375 93.683594 69.355469 92.390625 69.957031 C 91.109375 70.558594 89.761719 71.027344 88.382812 71.355469 C 87 71.683594 85.582031 71.875 84.15625 71.898438 C 82.777344 71.921875 81.441406 71.90625 80.09375 71.898438 C 79.496094 71.898438 79.007812 71.433594 78.957031 70.84375 L 78.957031 70.832031 L 77.695312 55.363281 L 76.511719 39.890625 C 76.144531 34.734375 75.75 29.574219 75.410156 24.414062 L 74.367188 8.929688 L 76.160156 8.929688 L 73.394531 39.839844 L 72.070312 55.300781 L 70.824219 70.765625 C 70.808594 70.976562 70.632812 71.136719 70.425781 71.140625 C 69.082031 71.152344 67.742188 71.183594 66.382812 71.171875 C 65.007812 71.164062 63.636719 70.992188 62.296875 70.691406 C 59.621094 70.082031 57.058594 68.921875 54.84375 67.277344 C 53.734375 66.457031 52.707031 65.542969 51.769531 64.523438 C 50.835938 63.5 50.019531 62.375 49.300781 61.199219 C 48.582031 60.019531 47.984375 58.757812 47.527344 57.449219 C 47.0625 56.148438 46.699219 54.796875 46.492188 53.425781 C 46.4375 53.082031 46.394531 52.738281 46.359375 52.390625 C 46.324219 52.058594 46.308594 51.703125 46.28125 51.359375 C 46.222656 50.667969 46.21875 49.972656 46.207031 49.300781 L 46.121094 45.246094 L 45.992188 41.1875 C 45.957031 39.832031 45.863281 38.484375 45.804688 37.132812 L 45.597656 33.085938 C 45.527344 31.734375 45.464844 30.382812 45.363281 29.035156 C 45.171875 26.339844 44.945312 23.652344 44.632812 20.980469 L 46.277344 21.097656 C 45.511719 24.292969 44.863281 27.519531 44.261719 30.761719 L 42.570312 40.507812 L 41.8125 45.40625 L 41.109375 50.28125 C 41.058594 50.6875 41.023438 51.078125 40.996094 51.464844 L 40.945312 52.046875 C 40.9375 52.136719 40.933594 52.253906 40.929688 52.355469 L 40.914062 52.652344 C 40.886719 53.4375 40.898438 54.234375 40.945312 55.023438 C 41.03125 56.609375 41.257812 58.179688 41.644531 59.699219 C 43.15625 65.851562 47.015625 71.339844 52.183594 74.910156 C 53.472656 75.800781 54.84375 76.585938 56.269531 77.242188 C 57.695312 77.886719 59.179688 78.402344 60.695312 78.789062 C 62.210938 79.164062 63.78125 79.421875 65.316406 79.523438 C 66.882812 79.609375 68.527344 79.589844 70.167969 79.605469 C 70.902344 79.613281 71.496094 80.210938 71.5 80.949219 L 71.5 80.953125 C 71.546875 92.558594 71.597656 104.160156 71.589844 115.765625 L 71.578125 133.167969 L 71.546875 141.871094 L 71.542969 144.046875 L 71.542969 144.464844 C 71.546875 144.5 71.554688 144.535156 71.566406 144.570312 C 71.597656 144.636719 71.644531 144.703125 71.710938 144.742188 C 71.742188 144.761719 71.773438 144.777344 71.8125 144.785156 C 71.828125 144.792969 71.847656 144.792969 71.867188 144.796875 C 71.875 144.792969 71.886719 144.796875 71.894531 144.796875 L 72.023438 144.796875 L 73.105469 144.800781 L 77.425781 144.816406 L 78.507812 144.820312 L 78.632812 144.820312 C 78.644531 144.816406 78.652344 144.816406 78.664062 144.816406 C 78.683594 144.8125 78.707031 144.816406 78.722656 144.808594 C 78.761719 144.800781 78.800781 144.785156 78.832031 144.765625 C 78.90625 144.726562 78.960938 144.65625 78.996094 144.585938 C 79.007812 144.546875 79.019531 144.507812 79.023438 144.46875 C 79.023438 144.457031 79.023438 144.445312 79.027344 144.433594 C 79.027344 144.421875 79.027344 144.351562 79.027344 144.316406 L 79.027344 144.042969 L 79.105469 133.164062 C 79.136719 127.363281 79.222656 121.5625 79.285156 115.761719 L 79.820312 80.949219 L 79.824219 80.9375 C 79.828125 80.636719 80.070312 80.398438 80.367188 80.398438 C 82.332031 80.394531 84.3125 80.484375 86.226562 80.296875 C 88.15625 80.109375 90.070312 79.71875 91.921875 79.128906 C 93.777344 78.539062 95.5625 77.730469 97.253906 76.757812 C 98.941406 75.773438 100.519531 74.597656 101.957031 73.265625 C 104.828125 70.605469 107.160156 67.324219 108.640625 63.667969 L 108.917969 62.984375 L 109.160156 62.289062 C 109.332031 61.824219 109.464844 61.351562 109.597656 60.878906 C 109.882812 59.929688 110.097656 58.96875 110.257812 57.996094 C 110.570312 56.046875 110.679688 54.066406 110.570312 52.09375 "/></g><path style=" stroke:none;fill-rule:nonzero;fill:rgb(6.669617%,6.669617%,6.669617%);fill-opacity:1;" d="M 83.953125 21.984375 L 66.574219 21.984375 L 75.265625 4.484375 L 83.953125 21.984375 "/><path style=" stroke:none;fill-rule:nonzero;fill:rgb(0%,0%,0%);fill-opacity:1;" d="M 83.832031 21.90625 C 82.8125 20.277344 81.863281 18.773438 80.925781 17.328125 C 79.996094 15.882812 79.105469 14.511719 78.273438 13.171875 C 77.441406 11.835938 76.660156 10.53125 75.945312 9.203125 C 75.234375 7.882812 74.605469 6.527344 73.992188 5.125 L 76.539062 5.125 C 75.738281 6.546875 74.976562 7.984375 74.140625 9.386719 C 73.3125 10.792969 72.390625 12.152344 71.523438 13.535156 C 70.648438 14.917969 69.84375 16.335938 69.132812 17.804688 C 68.414062 19.261719 67.832031 20.792969 67.300781 22.347656 L 66.578125 21.164062 C 67.96875 20.980469 69.300781 20.789062 70.625 20.757812 C 71.953125 20.71875 73.296875 20.816406 74.675781 20.921875 C 76.058594 21.035156 77.488281 21.191406 79 21.363281 Z M 84.074219 22.058594 C 82.910156 22.25 81.601562 22.429688 80.21875 22.601562 C 78.835938 22.777344 77.367188 22.929688 75.851562 23.046875 C 74.335938 23.148438 72.785156 23.25 71.214844 23.210938 C 69.644531 23.179688 68.078125 22.988281 66.578125 22.800781 L 66.371094 22.773438 C 65.964844 22.726562 65.679688 22.355469 65.726562 21.945312 C 65.742188 21.824219 65.789062 21.710938 65.851562 21.617188 C 66.769531 20.257812 67.632812 18.871094 68.363281 17.414062 C 69.101562 15.964844 69.746094 14.464844 70.320312 12.933594 C 70.898438 11.402344 71.425781 9.84375 72.042969 8.332031 C 72.65625 6.816406 73.339844 5.339844 73.992188 3.84375 C 74.300781 3.136719 75.117188 2.816406 75.816406 3.125 C 76.105469 3.253906 76.332031 3.46875 76.472656 3.726562 L 76.539062 3.84375 C 77.371094 5.359375 78.191406 6.917969 78.925781 8.511719 C 79.660156 10.105469 80.328125 11.714844 80.941406 13.292969 C 81.558594 14.875 82.117188 16.417969 82.636719 17.890625 C 83.148438 19.359375 83.644531 20.773438 84.074219 22.058594 "/><g clip-rule="nonzero" clip-path="url(#clip2)"><path style=" stroke:none;fill-rule:nonzero;fill:rgb(6.669617%,6.669617%,6.669617%);fill-opacity:1;" d="M 114.421875 34.636719 L 97.042969 34.636719 L 105.730469 17.140625 L 114.421875 34.636719 "/></g><g clip-rule="nonzero" clip-path="url(#clip3)"><path style=" stroke:none;fill-rule:nonzero;fill:rgb(0%,0%,0%);fill-opacity:1;" d="M 114.296875 34.5625 C 113.277344 32.933594 112.328125 31.429688 111.390625 29.980469 C 110.464844 28.539062 109.574219 27.164062 108.742188 25.828125 C 107.90625 24.488281 107.125 23.183594 106.414062 21.859375 C 105.703125 20.535156 105.074219 19.183594 104.457031 17.78125 L 107.003906 17.78125 C 106.207031 19.199219 105.441406 20.640625 104.605469 22.042969 C 103.777344 23.445312 102.855469 24.804688 101.988281 26.191406 C 101.113281 27.574219 100.3125 28.992188 99.601562 30.457031 C 98.882812 31.917969 98.296875 33.445312 97.769531 35.003906 L 97.042969 33.820312 C 98.4375 33.632812 99.769531 33.441406 101.09375 33.410156 C 102.417969 33.371094 103.761719 33.472656 105.144531 33.574219 C 106.527344 33.691406 107.953125 33.84375 109.46875 34.019531 Z M 114.542969 34.714844 C 113.378906 34.902344 112.066406 35.085938 110.683594 35.257812 C 109.300781 35.429688 107.832031 35.585938 106.320312 35.699219 C 104.804688 35.804688 103.25 35.902344 101.683594 35.863281 C 100.109375 35.832031 98.546875 35.640625 97.042969 35.453125 L 96.839844 35.429688 C 96.433594 35.378906 96.144531 35.007812 96.195312 34.601562 C 96.210938 34.480469 96.253906 34.367188 96.316406 34.273438 C 97.234375 32.914062 98.101562 31.523438 98.832031 30.070312 C 99.566406 28.617188 100.214844 27.121094 100.785156 25.585938 C 101.367188 24.054688 101.894531 22.496094 102.511719 20.988281 C 103.125 19.472656 103.808594 17.992188 104.457031 16.5 C 104.765625 15.792969 105.582031 15.472656 106.285156 15.78125 C 106.574219 15.90625 106.796875 16.125 106.941406 16.382812 L 107.003906 16.5 C 107.839844 18.011719 108.65625 19.574219 109.394531 21.167969 C 110.128906 22.761719 110.796875 24.371094 111.410156 25.949219 C 112.023438 27.527344 112.582031 29.074219 113.105469 30.546875 C 113.613281 32.015625 114.113281 33.425781 114.542969 34.714844 "/></g><g clip-rule="nonzero" clip-path="url(#clip4)"><path style=" stroke:none;fill-rule:nonzero;fill:rgb(6.669617%,6.669617%,6.669617%);fill-opacity:1;" d="M 53.367188 34.636719 L 35.988281 34.636719 L 44.675781 17.140625 L 53.367188 34.636719 "/></g><g clip-rule="nonzero" clip-path="url(#clip5)"><path style=" stroke:none;fill-rule:nonzero;fill:rgb(0%,0%,0%);fill-opacity:1;" d="M 53.246094 34.5625 C 52.222656 32.933594 51.273438 31.429688 50.335938 29.980469 C 49.410156 28.539062 48.519531 27.164062 47.6875 25.828125 C 46.851562 24.488281 46.070312 23.183594 45.359375 21.859375 C 44.648438 20.535156 44.019531 19.183594 43.402344 17.78125 L 45.949219 17.78125 C 45.152344 19.199219 44.390625 20.640625 43.554688 22.042969 C 42.722656 23.445312 41.804688 24.804688 40.933594 26.191406 C 40.058594 27.574219 39.257812 28.992188 38.546875 30.457031 C 37.828125 31.917969 37.246094 33.445312 36.714844 35.003906 L 35.988281 33.820312 C 37.382812 33.632812 38.714844 33.441406 40.039062 33.410156 C 41.363281 33.371094 42.707031 33.472656 44.089844 33.574219 C 45.472656 33.691406 46.898438 33.84375 48.414062 34.019531 Z M 53.488281 34.714844 C 52.324219 34.902344 51.011719 35.085938 49.628906 35.257812 C 48.246094 35.429688 46.777344 35.585938 45.265625 35.699219 C 43.75 35.804688 42.199219 35.902344 40.628906 35.863281 C 39.058594 35.832031 37.492188 35.640625 35.988281 35.453125 L 35.785156 35.429688 C 35.378906 35.378906 35.089844 35.007812 35.140625 34.601562 C 35.15625 34.480469 35.199219 34.367188 35.261719 34.273438 C 36.179688 32.914062 37.046875 31.523438 37.777344 30.070312 C 38.511719 28.617188 39.160156 27.121094 39.730469 25.585938 C 40.3125 24.054688 40.839844 22.496094 41.457031 20.988281 C 42.070312 19.472656 42.753906 17.992188 43.402344 16.5 C 43.710938 15.792969 44.527344 15.472656 45.230469 15.78125 C 45.519531 15.90625 45.742188 16.125 45.886719 16.382812 L 45.949219 16.5 C 46.785156 18.011719 47.601562 19.574219 48.339844 21.167969 C 49.074219 22.761719 49.742188 24.371094 50.355469 25.949219 C 50.972656 27.527344 51.527344 29.074219 52.050781 30.546875 C 52.558594 32.015625 53.058594 33.425781 53.488281 34.714844 "/></g></g></svg>