<?xml version="1.0" encoding="UTF-8"?><svg xmlns="http://www.w3.org/2000/svg" xmlns:xlink="http://www.w3.org/1999/xlink" width="150pt" zoomAndPan="magnify" viewBox="0 0 150 149.999998" height="149.999998pt" preserveAspectRatio="xMidYMid meet" version="1.2"><defs><clipPath xml:id="clip1" id="clip1"><path d="M 17.742188 4.402344 L 145.054688 4.402344 L 145.054688 144.796875 L 17.742188 144.796875 Z M 17.742188 4.402344 "/></clipPath><clipPath xml:id="clip2" id="clip2"><path d="M 4.109375 42 L 14 42 L 14 49 L 4.109375 49 Z M 4.109375 42 "/></clipPath><clipPath xml:id="clip3" id="clip3"><path d="M 4.109375 55 L 15 55 L 15 62 L 4.109375 62 Z M 4.109375 55 "/></clipPath></defs><g xml:id="surface1" id="surface1"><g clip-rule="nonzero" clip-path="url(#clip1)"><path style=" stroke:none;fill-rule:nonzero;fill:rgb(6.269836%,5.879211%,5.099487%);fill-opacity:1;" d="M 81.433594 8.785156 C 42.125 8.785156 22.199219 35.160156 22.199219 87.195312 C 22.199219 120.019531 44.894531 140.410156 81.433594 140.410156 C 117.972656 140.410156 140.664062 120.019531 140.664062 87.195312 C 140.664062 35.160156 120.734375 8.785156 81.433594 8.785156 Z M 81.433594 144.796875 C 42.785156 144.796875 17.8125 122.1875 17.8125 87.195312 C 17.8125 33.023438 39.8125 4.394531 81.433594 4.394531 C 123.054688 4.394531 145.054688 33.023438 145.054688 87.195312 C 145.054688 122.1875 120.078125 144.796875 81.433594 144.796875 "/></g><path style=" stroke:none;fill-rule:nonzero;fill:rgb(96.469116%,71.369934%,43.919373%);fill-opacity:1;" d="M 30.242188 89.925781 C 30.242188 83.914062 33.085938 78.660156 37.363281 75.667969 C 35.492188 72.214844 34.394531 68.191406 34.394531 63.871094 C 34.394531 52.488281 41.867188 43.0625 51.664062 41.230469 C 51.230469 39.664062 50.996094 38.003906 50.996094 36.277344 C 50.996094 26.964844 60.140625 19.417969 68.539062 19.417969 C 76.945312 19.417969 81.433594 24.289062 81.433594 24.289062 C 81.433594 24.289062 85.921875 19.417969 94.320312 19.417969 C 102.726562 19.417969 111.871094 26.964844 111.871094 36.277344 C 111.871094 38.003906 111.632812 39.664062 111.199219 41.230469 C 121 43.0625 128.46875 52.488281 128.46875 63.871094 C 128.46875 68.191406 127.375 72.214844 125.503906 75.667969 C 129.777344 78.660156 132.625 83.914062 132.625 89.925781 C 132.625 95.890625 129.816406 101.117188 125.601562 104.113281 C 125.625 104.492188 125.699219 104.859375 125.699219 105.246094 C 125.699219 113.714844 119.507812 120.574219 111.871094 120.574219 C 111.324219 120.574219 110.804688 120.46875 110.273438 120.402344 C 107.777344 125.945312 102.628906 129.773438 96.648438 129.773438 C 86.089844 129.773438 83.136719 123.054688 81.433594 123.054688 C 79.730469 123.054688 76.777344 129.773438 66.21875 129.773438 C 60.238281 129.773438 55.082031 125.945312 52.59375 120.402344 C 52.058594 120.46875 51.542969 120.574219 50.996094 120.574219 C 43.355469 120.574219 37.15625 113.714844 37.15625 105.246094 C 37.15625 104.859375 37.242188 104.492188 37.261719 104.113281 C 33.050781 101.117188 30.242188 95.890625 30.242188 89.925781 "/><path style=" stroke:none;fill-rule:nonzero;fill:rgb(6.269836%,5.879211%,5.099487%);fill-opacity:1;" d="M 81.433594 120.859375 C 82.785156 120.859375 83.746094 121.753906 84.855469 122.789062 C 86.894531 124.699219 89.976562 127.582031 96.648438 127.582031 C 101.585938 127.582031 106.035156 124.488281 108.273438 119.503906 L 108.933594 118.011719 L 111.035156 118.292969 C 111.308594 118.332031 111.582031 118.386719 111.871094 118.386719 C 118.289062 118.386719 123.507812 112.488281 123.507812 105.246094 C 123.507812 105.109375 123.488281 104.980469 123.472656 104.84375 C 123.449219 104.652344 123.425781 104.457031 123.410156 104.265625 L 123.328125 103.035156 L 124.332031 102.324219 C 128.148438 99.609375 130.425781 94.976562 130.425781 89.925781 C 130.425781 84.828125 128.121094 80.171875 124.246094 77.472656 L 122.640625 76.347656 L 123.578125 74.628906 C 125.34375 71.363281 126.277344 67.644531 126.277344 63.871094 C 126.277344 53.683594 119.765625 45.0625 110.796875 43.382812 L 108.445312 42.941406 L 109.085938 40.644531 C 109.472656 39.230469 109.671875 37.761719 109.671875 36.277344 C 109.671875 28.023438 101.425781 21.617188 94.320312 21.617188 C 87.0625 21.617188 83.199219 25.613281 83.039062 25.78125 L 81.425781 27.492188 L 79.820312 25.773438 C 79.667969 25.613281 75.804688 21.617188 68.539062 21.617188 C 61.441406 21.617188 53.1875 28.023438 53.1875 36.277344 C 53.1875 37.761719 53.382812 39.230469 53.78125 40.644531 L 54.417969 42.941406 L 52.066406 43.382812 C 43.097656 45.0625 36.585938 53.683594 36.585938 63.871094 C 36.585938 67.644531 37.523438 71.363281 39.292969 74.628906 L 40.222656 76.347656 L 38.617188 77.472656 C 34.746094 80.171875 32.433594 84.828125 32.433594 89.925781 C 32.433594 94.976562 34.714844 99.609375 38.535156 102.324219 L 39.539062 103.039062 L 39.453125 104.265625 C 39.4375 104.457031 39.417969 104.644531 39.394531 104.828125 C 39.378906 104.972656 39.355469 105.109375 39.355469 105.246094 C 39.355469 112.488281 44.574219 118.386719 50.996094 118.386719 C 51.285156 118.386719 51.558594 118.332031 51.832031 118.292969 L 53.925781 118.011719 L 54.59375 119.503906 C 56.832031 124.488281 61.28125 127.582031 66.21875 127.582031 C 72.882812 127.582031 75.96875 124.699219 78.007812 122.789062 C 79.121094 121.753906 80.078125 120.859375 81.433594 120.859375 Z M 96.648438 131.964844 C 88.25 131.964844 84.085938 128.085938 81.859375 125.992188 C 81.722656 125.871094 81.578125 125.734375 81.433594 125.605469 C 81.289062 125.734375 81.144531 125.871094 81.007812 125.992188 C 78.769531 128.085938 74.617188 131.964844 66.21875 131.964844 C 60.039062 131.964844 54.464844 128.480469 51.324219 122.757812 C 51.207031 122.765625 51.101562 122.773438 50.996094 122.773438 C 42.15625 122.773438 34.964844 114.910156 34.964844 105.246094 C 34.964844 105.210938 34.964844 105.164062 34.964844 105.117188 C 30.613281 101.519531 28.050781 95.9375 28.050781 89.925781 C 28.050781 84.074219 30.46875 78.644531 34.601562 75.046875 C 33.027344 71.570312 32.195312 67.742188 32.195312 63.871094 C 32.195312 52.398438 39.171875 42.5625 49.070312 39.601562 C 48.886719 38.507812 48.804688 37.394531 48.804688 36.277344 C 48.804688 25.375 59.226562 17.230469 68.539062 17.230469 C 74.882812 17.230469 79.25 19.738281 81.433594 21.390625 C 83.617188 19.738281 87.976562 17.230469 94.320312 17.230469 C 103.640625 17.230469 114.0625 25.375 114.0625 36.277344 C 114.0625 37.394531 113.96875 38.507812 113.792969 39.601562 C 123.691406 42.5625 130.660156 52.398438 130.660156 63.871094 C 130.660156 67.742188 129.839844 71.570312 128.265625 75.046875 C 132.394531 78.644531 134.8125 84.074219 134.8125 89.925781 C 134.8125 95.9375 132.25 101.519531 127.898438 105.117188 C 127.898438 105.164062 127.898438 105.210938 127.898438 105.246094 C 127.898438 114.910156 120.710938 122.773438 111.871094 122.773438 C 111.757812 122.773438 111.648438 122.765625 111.542969 122.757812 C 108.402344 128.480469 102.824219 131.964844 96.648438 131.964844 "/><path style=" stroke:none;fill-rule:nonzero;fill:rgb(6.269836%,5.879211%,5.099487%);fill-opacity:1;" d="M 111.390625 123.308594 L 107.390625 121.511719 L 108.285156 119.511719 C 109.140625 117.609375 109.601562 115.5625 109.664062 113.425781 L 109.734375 111.234375 L 114.121094 111.363281 L 114.054688 113.5625 C 113.96875 116.269531 113.375 118.871094 112.289062 121.304688 L 111.390625 123.308594 "/><path style=" stroke:none;fill-rule:nonzero;fill:rgb(6.269836%,5.879211%,5.099487%);fill-opacity:1;" d="M 134.8125 92.117188 L 130.425781 92.117188 L 130.425781 89.925781 C 130.425781 81.839844 124.582031 75.257812 117.402344 75.257812 L 115.210938 75.257812 L 115.210938 70.867188 L 117.402344 70.867188 C 127 70.867188 134.8125 79.417969 134.8125 89.925781 L 134.8125 92.117188 "/><path style=" stroke:none;fill-rule:nonzero;fill:rgb(6.269836%,5.879211%,5.099487%);fill-opacity:1;" d="M 51.472656 123.308594 L 50.578125 121.304688 C 49.398438 118.683594 48.804688 115.859375 48.804688 112.914062 L 48.804688 110.71875 L 53.1875 110.71875 L 53.1875 112.914062 C 53.1875 115.234375 53.65625 117.449219 54.578125 119.511719 L 55.476562 121.511719 L 51.472656 123.308594 "/><path style=" stroke:none;fill-rule:nonzero;fill:rgb(6.269836%,5.879211%,5.099487%);fill-opacity:1;" d="M 83.625 33.609375 L 79.242188 33.609375 L 79.242188 22.027344 L 83.625 22.027344 L 83.625 33.609375 "/><path style=" stroke:none;fill-rule:nonzero;fill:rgb(6.269836%,5.879211%,5.099487%);fill-opacity:1;" d="M 106.21875 116.445312 C 106.058594 116.445312 105.898438 116.4375 105.738281 116.429688 C 102.648438 116.308594 99.804688 114.945312 97.71875 112.609375 L 96.253906 110.976562 L 99.53125 108.054688 L 100.992188 109.691406 C 102.277344 111.128906 104.027344 111.972656 105.921875 112.046875 C 107.785156 112.109375 109.601562 111.441406 110.996094 110.125 C 113.917969 107.347656 114.105469 102.636719 111.414062 99.617188 L 109.953125 97.980469 L 113.222656 95.054688 L 114.683594 96.695312 C 118.945312 101.464844 118.640625 108.914062 114.015625 113.304688 C 111.871094 115.34375 109.117188 116.445312 106.21875 116.445312 "/><path style=" stroke:none;fill-rule:nonzero;fill:rgb(6.269836%,5.879211%,5.099487%);fill-opacity:1;" d="M 57.460938 116.445312 C 54.554688 116.445312 51.800781 115.34375 49.664062 113.304688 C 45.03125 108.914062 44.726562 101.464844 48.988281 96.695312 L 50.449219 95.054688 L 53.71875 97.980469 L 52.257812 99.617188 C 49.566406 102.636719 49.753906 107.347656 52.683594 110.125 C 54.070312 111.441406 55.871094 112.117188 57.757812 112.046875 C 59.644531 111.972656 61.394531 111.128906 62.6875 109.691406 L 64.140625 108.054688 L 67.417969 110.976562 L 65.960938 112.609375 C 63.875 114.945312 61.03125 116.300781 57.941406 116.429688 C 57.78125 116.4375 57.621094 116.445312 57.460938 116.445312 "/><path style=" stroke:none;fill-rule:nonzero;fill:rgb(6.269836%,5.879211%,5.099487%);fill-opacity:1;" d="M 102.550781 93.578125 C 100.101562 93.578125 97.667969 92.769531 95.621094 91.1875 L 93.886719 89.847656 L 96.570312 86.378906 L 98.304688 87.71875 C 100.582031 89.484375 103.648438 89.667969 106.105469 88.191406 L 107.984375 87.066406 L 110.242188 90.824219 L 108.363281 91.957031 C 106.550781 93.035156 104.542969 93.578125 102.550781 93.578125 "/><path style=" stroke:none;fill-rule:nonzero;fill:rgb(6.269836%,5.879211%,5.099487%);fill-opacity:1;" d="M 63.03125 93.578125 C 61.03125 93.578125 59.027344 93.042969 57.210938 91.957031 L 55.332031 90.824219 L 57.589844 87.066406 L 59.46875 88.191406 C 62.09375 89.765625 65.402344 89.4375 67.695312 87.371094 L 69.3125 85.894531 L 72.257812 89.148438 L 70.636719 90.617188 C 68.476562 92.574219 65.761719 93.578125 63.03125 93.578125 "/><path style=" stroke:none;fill-rule:nonzero;fill:rgb(6.269836%,5.879211%,5.099487%);fill-opacity:1;" d="M 96.808594 36.574219 L 92.632812 35.226562 L 93.308594 33.136719 C 95.667969 25.832031 104.332031 26.304688 108.582031 27.574219 L 110.691406 28.199219 L 109.4375 32.40625 L 107.335938 31.773438 C 106.980469 31.675781 99.113281 29.429688 97.476562 34.488281 L 96.808594 36.574219 "/><path style=" stroke:none;fill-rule:nonzero;fill:rgb(6.269836%,5.879211%,5.099487%);fill-opacity:1;" d="M 66.992188 36.574219 L 66.316406 34.488281 C 64.671875 29.402344 54.136719 31.78125 54.03125 31.804688 L 51.894531 32.320312 L 50.867188 28.0625 L 52.996094 27.542969 C 58.398438 26.226562 68.164062 25.929688 70.492188 33.136719 L 71.171875 35.226562 L 66.992188 36.574219 "/><path style=" stroke:none;fill-rule:nonzero;fill:rgb(6.269836%,5.879211%,5.099487%);fill-opacity:1;" d="M 109.351562 82.917969 L 107.160156 82.917969 L 107.160156 78.539062 L 109.351562 78.539062 C 111.945312 78.539062 114.136719 75.609375 114.136719 72.148438 C 114.136719 69.789062 113.15625 67.628906 111.574219 66.503906 L 109.785156 65.222656 L 112.335938 61.65625 L 114.121094 62.925781 C 116.882812 64.890625 118.527344 68.335938 118.527344 72.148438 C 118.527344 78.089844 114.410156 82.917969 109.351562 82.917969 "/><path style=" stroke:none;fill-rule:nonzero;fill:rgb(6.269836%,5.879211%,5.099487%);fill-opacity:1;" d="M 97.316406 61.976562 C 94.972656 61.976562 92.632812 61.421875 90.667969 60.332031 L 88.742188 59.273438 L 90.867188 55.433594 L 92.78125 56.492188 C 95.179688 57.816406 98.535156 57.953125 101.136719 56.839844 L 103.152344 55.972656 L 104.878906 60.003906 L 102.863281 60.871094 C 101.144531 61.609375 99.226562 61.976562 97.316406 61.976562 "/><path style=" stroke:none;fill-rule:nonzero;fill:rgb(6.269836%,5.879211%,5.099487%);fill-opacity:1;" d="M 65.539062 61.976562 C 63.640625 61.976562 61.722656 61.609375 60.003906 60.871094 L 57.988281 60.003906 L 59.714844 55.972656 L 61.730469 56.839844 C 64.332031 57.953125 67.6875 57.816406 70.074219 56.492188 L 72 55.433594 L 74.121094 59.273438 L 72.195312 60.332031 C 70.226562 61.421875 67.890625 61.976562 65.539062 61.976562 "/><path style=" stroke:none;fill-rule:nonzero;fill:rgb(6.269836%,5.879211%,5.099487%);fill-opacity:1;" d="M 88.871094 80.964844 L 88.171875 76.628906 L 90.339844 76.277344 C 93.171875 75.820312 95.492188 73.457031 96.246094 70.246094 L 96.746094 68.105469 L 101.015625 69.113281 L 100.511719 71.25 C 99.347656 76.203125 95.636719 79.875 91.039062 80.613281 L 88.871094 80.964844 "/><path style=" stroke:none;fill-rule:nonzero;fill:rgb(6.269836%,5.879211%,5.099487%);fill-opacity:1;" d="M 73.992188 80.964844 L 71.824219 80.613281 C 67.230469 79.875 63.507812 76.203125 62.351562 71.25 L 61.851562 69.113281 L 66.117188 68.105469 L 66.621094 70.246094 C 67.375 73.457031 69.6875 75.820312 72.523438 76.277344 L 74.683594 76.628906 L 73.992188 80.964844 "/><path style=" stroke:none;fill-rule:nonzero;fill:rgb(6.269836%,5.879211%,5.099487%);fill-opacity:1;" d="M 95.082031 50.191406 L 92.921875 49.8125 C 88.410156 49.011719 85.03125 46.335938 84.316406 42.980469 L 83.859375 40.835938 L 88.148438 39.914062 L 88.605469 42.058594 C 88.878906 43.328125 90.585938 44.941406 93.679688 45.492188 L 95.839844 45.871094 L 95.082031 50.191406 "/><path style=" stroke:none;fill-rule:nonzero;fill:rgb(6.269836%,5.879211%,5.099487%);fill-opacity:1;" d="M 67.785156 50.191406 L 67.023438 45.871094 L 69.183594 45.492188 C 72.28125 44.941406 73.984375 43.328125 74.257812 42.058594 L 74.714844 39.914062 L 79.007812 40.835938 L 78.550781 42.980469 C 77.835938 46.335938 74.449219 49.011719 69.945312 49.8125 L 67.785156 50.191406 "/><path style=" stroke:none;fill-rule:nonzero;fill:rgb(6.269836%,5.879211%,5.099487%);fill-opacity:1;" d="M 88.582031 119.890625 L 87.59375 117.9375 C 85.070312 112.945312 84.605469 108.65625 86.21875 105.1875 C 88.316406 100.652344 93.164062 99.457031 93.367188 99.414062 L 95.507812 98.902344 L 96.519531 103.171875 L 94.394531 103.671875 C 94.273438 103.710938 91.34375 104.507812 90.179688 107.066406 C 89.183594 109.25 89.632812 112.238281 91.503906 115.949219 L 92.492188 117.90625 L 88.582031 119.890625 "/><path style=" stroke:none;fill-rule:nonzero;fill:rgb(6.269836%,5.879211%,5.099487%);fill-opacity:1;" d="M 74.28125 119.890625 L 70.371094 117.90625 L 71.359375 115.949219 C 73.230469 112.238281 73.679688 109.25 72.683594 107.066406 C 71.496094 104.472656 68.492188 103.679688 68.460938 103.671875 L 66.355469 103.140625 L 67.375 98.910156 L 69.496094 99.414062 C 69.695312 99.457031 74.539062 100.652344 76.648438 105.1875 C 78.261719 108.65625 77.796875 112.945312 75.269531 117.9375 L 74.28125 119.890625 "/><path style=" stroke:none;fill-rule:nonzero;fill:rgb(6.269836%,5.879211%,5.099487%);fill-opacity:1;" d="M 83.625 72.9375 L 79.242188 72.9375 L 79.242188 53.160156 L 83.625 53.160156 L 83.625 72.9375 "/><path style=" stroke:none;fill-rule:nonzero;fill:rgb(6.269836%,5.879211%,5.099487%);fill-opacity:1;" d="M 83.625 98.605469 L 79.242188 98.605469 L 79.242188 83.953125 L 83.625 83.953125 L 83.625 98.605469 "/><path style=" stroke:none;fill-rule:nonzero;fill:rgb(94.119263%,23.139954%,30.589294%);fill-opacity:1;" d="M 33.71875 61.429688 C 34.523438 60.699219 34.648438 59.496094 34.113281 58.550781 C 33.628906 57.699219 33.351562 56.726562 33.351562 55.675781 C 33.351562 54.566406 33.65625 53.523438 34.191406 52.640625 C 35.101562 51.128906 35.734375 49.46875 35.726562 47.710938 L 35.726562 47.355469 C 35.726562 44.074219 40.480469 30.722656 48.796875 30.722656 C 51.953125 30.722656 54.503906 33.179688 54.699219 36.285156 C 57.523438 37.617188 59.492188 40.460938 59.492188 43.792969 C 59.492188 46.9375 57.742188 49.660156 55.171875 51.066406 C 53.503906 51.972656 52.355469 53.609375 52.363281 55.507812 L 52.363281 55.675781 C 52.363281 58.605469 50.820312 61.148438 48.523438 62.613281 L 48.523438 83.140625 C 48.523438 85.324219 47.03125 87.347656 44.871094 87.695312 C 42.125 88.144531 39.75 86.039062 39.75 83.375 L 39.75 80.652344 C 39.75 78.1875 38.167969 76.109375 35.910156 75.113281 C 33.003906 73.835938 30.972656 70.945312 30.972656 67.558594 C 30.972656 65.117188 32.039062 62.941406 33.71875 61.429688 "/><path style=" stroke:none;fill-rule:nonzero;fill:rgb(6.269836%,5.879211%,5.099487%);fill-opacity:1;" d="M 35.1875 63.054688 C 33.886719 64.226562 33.171875 65.824219 33.171875 67.558594 C 33.171875 69.957031 34.59375 72.140625 36.800781 73.113281 C 39.972656 74.511719 41.941406 77.402344 41.941406 80.652344 L 41.941406 83.375 C 41.941406 84.015625 42.222656 84.625 42.71875 85.042969 C 43.21875 85.46875 43.859375 85.644531 44.519531 85.535156 C 45.539062 85.367188 46.332031 84.320312 46.332031 83.140625 L 46.332031 61.421875 L 47.34375 60.773438 C 49.117188 59.632812 50.171875 57.730469 50.171875 55.675781 C 50.164062 52.878906 51.640625 50.496094 54.121094 49.140625 C 56.078125 48.070312 57.300781 46.023438 57.300781 43.792969 C 57.300781 41.449219 55.910156 39.28125 53.765625 38.269531 L 52.59375 37.714844 L 52.507812 36.421875 C 52.386719 34.460938 50.757812 32.914062 48.796875 32.914062 C 42.261719 32.914062 37.917969 44.5625 37.917969 47.355469 L 37.917969 47.703125 C 37.925781 49.683594 37.300781 51.722656 36.070312 53.773438 C 35.726562 54.34375 35.542969 55 35.542969 55.675781 C 35.542969 56.308594 35.703125 56.917969 36.015625 57.472656 C 37.089844 59.359375 36.746094 61.65625 35.1875 63.054688 Z M 44.148438 89.957031 C 42.589844 89.957031 41.074219 89.410156 39.871094 88.390625 C 38.40625 87.132812 37.554688 85.308594 37.554688 83.375 L 37.554688 80.652344 C 37.554688 79.160156 36.585938 77.816406 35.027344 77.121094 C 31.230469 75.449219 28.78125 71.699219 28.78125 67.558594 C 28.78125 64.617188 30.035156 61.792969 32.234375 59.808594 C 31.519531 58.421875 31.15625 57.0625 31.15625 55.675781 C 31.15625 54.199219 31.558594 52.761719 32.3125 51.507812 C 33.140625 50.136719 33.535156 48.898438 33.535156 47.710938 L 33.535156 47.363281 C 33.535156 43.761719 38.625 28.527344 48.796875 28.527344 C 52.628906 28.527344 55.894531 31.234375 56.714844 34.886719 C 59.765625 36.789062 61.691406 40.164062 61.691406 43.792969 C 61.691406 47.628906 59.589844 51.148438 56.222656 52.992188 C 55.179688 53.5625 54.554688 54.496094 54.554688 55.5 C 54.554688 58.796875 53.140625 61.746094 50.722656 63.734375 L 50.722656 83.140625 C 50.722656 86.464844 48.355469 89.355469 45.230469 89.863281 C 44.863281 89.925781 44.507812 89.957031 44.148438 89.957031 "/><g clip-rule="nonzero" clip-path="url(#clip2)"><path style=" stroke:none;fill-rule:nonzero;fill:rgb(6.269836%,5.879211%,5.099487%);fill-opacity:1;" d="M 12.507812 48.808594 L 4.109375 46.28125 L 5.375 42.082031 L 13.78125 44.609375 L 12.507812 48.808594 "/></g><path style=" stroke:none;fill-rule:nonzero;fill:rgb(6.269836%,5.879211%,5.099487%);fill-opacity:1;" d="M 18.496094 39.9375 L 11.734375 33.5625 L 14.746094 30.375 L 21.507812 36.75 L 18.496094 39.9375 "/><g clip-rule="nonzero" clip-path="url(#clip3)"><path style=" stroke:none;fill-rule:nonzero;fill:rgb(6.269836%,5.879211%,5.099487%);fill-opacity:1;" d="M 5.464844 61.214844 L 4.71875 56.894531 L 13.871094 55.3125 L 14.625 59.632812 L 5.464844 61.214844 "/></g></g></svg>